<svg width="20" height="21" viewBox="0 0 20 21" fill="none" xmlns="http://www.w3.org/2000/svg">
<path d="M15.7324 1.6192C15.7042 1.44999 15.64 1.2888 15.5442 1.14648C15.4485 1.00416 15.3233 0.884034 15.1771 0.794192C15.031 0.704351 14.8673 0.646885 14.6971 0.625668C14.5269 0.604452 14.3541 0.619979 14.1904 0.671202L5.79035 3.2956C5.5461 3.37185 5.33262 3.52418 5.18107 3.73035C5.02952 3.93651 4.94784 4.18573 4.94795 4.4416V14.2C4.40731 13.7945 3.74559 13.5835 3.07001 13.601C2.39443 13.6186 1.74456 13.8637 1.22571 14.2967C0.706857 14.7298 0.34941 15.3253 0.211283 15.9868C0.0731557 16.6484 0.16244 17.3372 0.464671 17.9416C0.766902 18.5461 1.26437 19.0308 1.87648 19.3172C2.48859 19.6037 3.17948 19.675 3.83721 19.5197C4.49494 19.3645 5.08098 18.9917 5.50037 18.4618C5.91977 17.9318 6.14795 17.2758 6.14795 16.6V8.0416L14.548 5.416V8.8276C14.9596 8.8636 15.3616 8.9392 15.748 9.0484V1.816C15.748 1.7488 15.742 1.684 15.7324 1.6192ZM19.348 15.4C19.348 16.8322 18.779 18.2057 17.7663 19.2184C16.7536 20.2311 15.3801 20.8 13.948 20.8C12.5158 20.8 11.1423 20.2311 10.1296 19.2184C9.11688 18.2057 8.54795 16.8322 8.54795 15.4C8.54795 13.9678 9.11688 12.5943 10.1296 11.5816C11.1423 10.5689 12.5158 10 13.948 10C15.3801 10 16.7536 10.5689 17.7663 11.5816C18.779 12.5943 19.348 13.9678 19.348 15.4ZM16.6324 14.878L13.0396 12.898C12.9483 12.8475 12.8454 12.8217 12.741 12.8231C12.6367 12.8245 12.5346 12.8531 12.4447 12.906C12.3548 12.959 12.2802 13.0345 12.2284 13.125C12.1766 13.2156 12.1493 13.3181 12.1492 13.4224V17.3824C12.1491 17.4868 12.1762 17.5895 12.228 17.6802C12.2797 17.7709 12.3542 17.8466 12.4441 17.8997C12.5341 17.9527 12.6363 17.9814 12.7407 17.9829C12.8452 17.9844 12.9482 17.9585 13.0396 17.908L16.6324 15.928C16.7261 15.8761 16.8043 15.8001 16.8587 15.7077C16.9132 15.6154 16.9419 15.5102 16.9419 15.403C16.9419 15.2958 16.9132 15.1906 16.8587 15.0983C16.8043 15.0059 16.7261 14.9299 16.6324 14.878Z" fill="#BABABA"/>
</svg>
