<svg width="31" height="26" viewBox="0 0 31 26" fill="none" xmlns="http://www.w3.org/2000/svg">
<path d="M11.64 1.62498C9.38188 0.54686 6.22563 0.0187346 2 -1.5442e-05C1.60148 -0.00542976 1.21078 0.110777 0.880003 0.33311C0.608496 0.516628 0.386244 0.764052 0.232796 1.05362C0.0793488 1.34319 -0.000592726 1.66602 3.30866e-06 1.99373V19.875C3.30866e-06 21.0837 0.860003 21.9956 2 21.9956C6.44188 21.9956 10.8975 22.4106 13.5663 24.9331C13.6028 24.9678 13.6486 24.9909 13.6982 24.9998C13.7478 25.0086 13.7988 25.0026 13.8451 24.9826C13.8913 24.9626 13.9306 24.9295 13.9581 24.8874C13.9857 24.8453 14.0002 24.796 14 24.7456V3.67623C14.0001 3.53408 13.9697 3.39356 13.9108 3.26417C13.852 3.13478 13.766 3.01954 13.6588 2.92623C13.0474 2.40363 12.3684 1.96593 11.64 1.62498ZM29.12 0.331235C28.7891 0.109456 28.3983 -0.00610267 28 -1.5442e-05C23.7744 0.0187346 20.6181 0.544359 18.36 1.62498C17.6316 1.96531 16.9524 2.40215 16.3406 2.92373C16.2336 3.0172 16.1479 3.13249 16.0891 3.26186C16.0304 3.39122 16 3.53166 16 3.67373V24.7444C16 24.7927 16.0142 24.84 16.041 24.8804C16.0677 24.9207 16.1058 24.9522 16.1504 24.9709C16.195 24.9897 16.2441 24.9949 16.2916 24.9858C16.3392 24.9767 16.3829 24.9538 16.4175 24.92C18.0219 23.3262 20.8375 21.9937 28.0025 21.9944C28.5329 21.9944 29.0416 21.7836 29.4167 21.4086C29.7918 21.0335 30.0025 20.5248 30.0025 19.9944V1.99436C30.0032 1.666 29.9231 1.34251 29.7692 1.05246C29.6153 0.762403 29.3923 0.514705 29.12 0.331235Z" fill="black"/>
</svg>
