<svg width="28" height="24" viewBox="0 0 28 24" fill="none" xmlns="http://www.w3.org/2000/svg">
<path d="M4.66667 19.6667V14.6454L10.08 18.1827C11.2456 18.9442 12.6077 19.3498 14 19.3498C15.3923 19.3498 16.7544 18.9442 17.92 18.1827L23.3333 14.6454V19.6667C23.3333 19.8831 23.2632 20.0936 23.1333 20.2667L23.132 20.268L23.1307 20.2707L23.1267 20.276L23.1147 20.2893L23.0987 20.3107L23.0813 20.3333L22.9667 20.468C22.8321 20.6207 22.6911 20.7675 22.544 20.908C22.1747 21.264 21.624 21.7267 20.8773 22.1853C19.3827 23.1053 17.1187 24 14 24C10.8813 24 8.61867 23.1067 7.12133 22.1853C6.52218 21.8202 5.96349 21.3925 5.45467 20.9093C5.25281 20.7146 5.0627 20.508 4.88533 20.2907L4.87333 20.2773L4.86933 20.2707V20.268C4.73872 20.0947 4.66763 19.8837 4.66667 19.6667ZM27.5467 9.50402L16.8267 16.508C15.9862 17.0573 15.004 17.3498 14 17.3498C12.996 17.3498 12.0138 17.0573 11.1733 16.508L2 10.5147V17.6667C2 17.9319 1.89464 18.1863 1.70711 18.3738C1.51957 18.5613 1.26522 18.6667 1 18.6667C0.734784 18.6667 0.48043 18.5613 0.292893 18.3738C0.105357 18.1863 0 17.9319 0 17.6667V9.33335C0 9.21602 0.02 9.10402 0.0573333 9.00002C-0.0177561 8.78749 -0.0188436 8.55583 0.0542469 8.34261C0.127337 8.12939 0.270319 7.94711 0.46 7.82535L11.212 0.932016C12.0441 0.398702 13.0117 0.115234 14 0.115234C14.9883 0.115234 15.9559 0.398702 16.788 0.932016L27.54 7.82535C27.6804 7.91551 27.7961 8.03937 27.8764 8.18566C27.9566 8.33194 27.9991 8.496 27.9997 8.66287C28.0004 8.82974 27.9593 8.99413 27.8801 9.14105C27.801 9.28797 27.6864 9.41275 27.5467 9.50402Z" fill="#BABABA"/>
</svg>
