<svg width="26" height="24" viewBox="0 0 26 24" fill="none" xmlns="http://www.w3.org/2000/svg">
<path d="M19.0961 0C20.2055 0 21.2401 0.266666 22.2001 0.799999C23.1815 1.312 23.9708 2.09067 24.5681 3.136C25.1655 4.18133 25.4641 5.44 25.4641 6.912C25.4641 8.85333 24.9841 10.8373 24.0241 12.864C23.0855 14.8907 21.6775 16.8 19.8001 18.592C17.9228 20.3627 15.6615 21.856 13.0161 23.072C10.3495 21.856 8.07747 20.3627 6.20013 18.592C4.3228 16.8213 2.90413 14.9333 1.94413 12.928C1.00547 10.9227 0.536133 8.93867 0.536133 6.976C0.536133 5.48267 0.8348 4.21333 1.43213 3.168C2.02947 2.12267 2.8188 1.33333 3.80013 0.799999C4.78147 0.266666 5.8268 0 6.93613 0C8.30147 0 9.5068 0.458667 10.5521 1.376C11.6188 2.272 12.4401 3.52 13.0161 5.12C13.5708 3.52 14.3815 2.272 15.4481 1.376C16.5361 0.458667 17.7521 0 19.0961 0Z" fill="#A95151"/>
</svg>
