<svg width="22" height="22" viewBox="0 0 22 22" fill="none" xmlns="http://www.w3.org/2000/svg">
<path d="M16.449 17.2857L17.124 16.6152C20.247 16.7172 20.295 16.6077 20.4322 16.2867L21.2902 14.198L21.354 14L21.2842 13.8267C21.2475 13.7352 21.1342 13.4622 19.1842 11.603V10.625C21.4342 8.45748 21.3862 8.34648 21.258 8.02923L20.4037 5.91873C20.2755 5.60223 20.2267 5.47848 17.1262 5.56323L16.4512 4.86573C16.5209 3.83831 16.4855 2.80645 16.3455 1.78623L16.2585 1.58898L14.028 0.613981C13.6995 0.463981 13.584 0.409981 11.478 2.70348L10.5315 2.68923C8.36323 0.374731 8.26048 0.416731 7.93573 0.547981L5.86198 1.38648C5.53723 1.51773 5.42248 1.56423 5.54848 4.71423L4.87873 5.38173C1.75723 5.27973 1.70923 5.39073 1.57348 5.71023L0.713984 7.79973L0.646484 7.99998L0.716984 8.17398C0.753734 8.26398 0.862485 8.53398 2.81698 10.3955V11.3705C0.566985 13.538 0.615734 13.649 0.744734 13.967L1.59823 16.0797C1.72873 16.403 1.77523 16.5177 4.87498 16.4367L5.54998 17.138C5.48002 18.1638 5.51445 19.1941 5.65273 20.213L5.73973 20.4117L7.98448 21.3927C8.31073 21.5292 8.42398 21.578 10.524 19.2927L11.4705 19.3047C13.6417 21.6222 13.7527 21.5772 14.07 21.449L16.1392 20.6127C16.4662 20.483 16.5802 20.4372 16.449 17.2857ZM7.55548 12.3927C7.29378 11.7088 7.23989 10.9628 7.4006 10.2483C7.5613 9.53381 7.92943 8.88272 8.4588 8.37669C8.98817 7.87067 9.6552 7.53225 10.3762 7.40391C11.0972 7.27557 11.84 7.36302 12.5115 7.65529C13.1829 7.94756 13.7531 8.43162 14.1505 9.04675C14.5479 9.66188 14.7548 10.3807 14.7452 11.1129C14.7355 11.8452 14.5099 12.5583 14.0965 13.1628C13.6831 13.7673 13.1004 14.2362 12.4215 14.5107C11.4952 14.873 10.4631 14.8535 9.55114 14.4565C8.63917 14.0596 7.9216 13.3175 7.55548 12.3927Z" fill="#BABABA"/>
</svg>
