<svg width="20" height="26" viewBox="0 0 20 26" fill="none" xmlns="http://www.w3.org/2000/svg">
<path d="M19.9095 0.442358C19.8793 0.374865 19.8302 0.317606 19.768 0.277557C19.7059 0.237508 19.6334 0.216399 19.5595 0.216803H8.72505C8.65998 0.216911 8.59598 0.233345 8.53891 0.264598C8.48184 0.295851 8.43352 0.340925 8.39839 0.395691L0.0683863 13.6179C0.0282832 13.6755 0.00485251 13.743 0.000675921 13.8131C-0.00350067 13.8831 0.0117389 13.9529 0.0447157 14.0149C0.0776924 14.0768 0.127126 14.1284 0.18757 14.1641C0.248013 14.1997 0.31712 14.2179 0.387275 14.2168H6.35283L1.08728 24.5224C1.05704 24.5836 1.04283 24.6516 1.04597 24.7199C1.04911 24.7881 1.0695 24.8545 1.10523 24.9127C1.14096 24.971 1.19086 25.0192 1.25029 25.053C1.30971 25.0867 1.37672 25.1049 1.44505 25.1057H3.77839C3.83236 25.1061 3.88583 25.0952 3.93537 25.0738C3.98492 25.0523 4.02946 25.0208 4.06616 24.9812L17.7317 10.2112C17.786 10.156 17.8225 10.0857 17.8365 10.0095C17.8506 9.93335 17.8416 9.85471 17.8107 9.78368C17.7798 9.71265 17.7284 9.65247 17.663 9.61086C17.5977 9.56925 17.5214 9.54811 17.4439 9.55014H12.2017L19.8473 0.85458C19.8966 0.799339 19.9287 0.730937 19.9397 0.657731C19.9508 0.584526 19.9403 0.509687 19.9095 0.442358Z" fill="#2B788B"/>
</svg>
